<?xml version="1.0" encoding="UTF-8"?>
<svg id="svg1" xmlns="http://www.w3.org/2000/svg" viewBox="0 0 540.88 541.02">
  <defs>
    <style>
      .cls-1 {
        fill: #003da5;
      }

      .cls-2 {
        fill: #ffb200;
      }
    </style>
  </defs>
  <g id="layer-MC01">
    <g id="g421">
      <ellipse id="ellipse151" class="cls-1" cx="270.44" cy="270.45" rx="270.38" ry="270.36" transform="translate(-53.87 67.71) rotate(-12.99)"/>
      <path id="path381" class="cls-2" d="M95.81,64.14l.4.48.02-.02,90,109.22c.08-.03,5.55-2.06,12.23-8.16v-25.06h30v-20h19.9V56.45c-.65-6.77-.33-19.34-9.49-20.12-3.71,0-6.72,3.01-6.72,6.72s3.01,6.72,6.72,6.72c.25,0,.51,0,.76-.04v9.39h-.25c-9.06,0-16.4-7.34-16.4-16.4s7.34-16.39,16.4-16.4c16.22-.03,15.99,20.12,15.99,20.12h-.01v74.16h30.09V46.44h-.01c-.25-.34-.24-20.14,15.98-20.12,9.06.01,16.4,7.34,16.4,16.4s-7.34,16.4-16.4,16.4h-.25v-9.39c.25.03.51.04.76.04,3.71,0,6.72-3.01,6.72-6.72s-3.01-6.72-6.72-6.72c-9.16.78-8.84,13.36-9.49,20.12v64.15h20.02v20h22.49v32.03l6.71.32s58.3-73.86,92.43-116.81h0s.01,0,.02,0l.39-.49C370.66,6.94,288.26-10.99,209.67,7.15c-43.45,10.03-82.01,30.01-113.84,56.97h0l-.02.02Z"/>
      <path id="path411" class="cls-2" d="M129.62,394.14l55.6-45.81c-.46-.83-8.79-7.61-8.79-7.61h-35.87v-30h-20v-20h-63.93c-6.77.65-19.34.33-20.12,9.49,0,3.71,3.01,6.72,6.72,6.72s6.72-3.01,6.72-6.72c0-.25,0-.51-.04-.76h9.39v.25c0,9.06-7.34,16.4-16.4,16.4s-16.39-7.34-16.4-16.4c-.03-16.28,19.93-16.24,20.12-15.98h73.94v-27.04H46.62c-.19.26-20.14.31-20.12-15.97.01-9.06,7.34-16.4,16.4-16.4s16.4,7.34,16.4,16.4v.25h-9.39c.03-.25.04-.51.04-.76,0-3.71-3.01-6.72-6.72-6.72s-6.72,3.01-6.72,6.72c.78,9.16,13.36,8.84,20.12,9.49h63.94v-19.72h20v-30h24.99c-.05-.39,2.48.27,2.34-.68L61.52,98.88C10.27,161.45-12.47,246.25,7.12,331.16c9.86,42.72,29.69,82.47,58.31,115.69,21.66-18.66,42.07-34.56,64.18-52.71h0Z"/>
      <path id="path391" class="cls-2" d="M343.8,185.15c-20.88-15.38-51.31-14.23-53.42-15.12v-15h-40v22c-56.77,25.7-60,80.11-60,80.11h-15.54v26.75h15.54c8.94,54.07,71.23,47.77,72.53,46.99,44.96-8.98,48.08-44.74,47.47-46.99v-26.75c-14.32-11.05-27.57-10.15-40,0v26.75c-10.64,8.78-22.9,12.26-40,0,0,0-.27-26.32,0-26.75,6.43-30.58,34.7-47.79,56.09-46.51,57.52,3.45,60.58,44.25,63.91,46.51h15v26.75h-15c-10.23,64.88-59.85,80.12-60,80.12v22h-40v-15c-28.78.26-50.3-11.76-53.54-14.93l-103.15,118.33s3.74,3.43,13.07,10.56c34.12-42.95,92.43-116.81,92.43-116.81l6.71.32v32.03h22.49v20h20.02v64.15c-.65,6.77-.33,19.34-9.49,20.12-3.71,0-6.72-3.01-6.72-6.72s3.01-6.72,6.72-6.72c.25,0,.51.01.76.04v-9.39h-.25c-9.06,0-16.4,7.34-16.4,16.4s7.34,16.39,16.4,16.4c16.22.03,16.23-19.77,15.98-20.12h-.01v-74.16h30.09v74.16h-.01s-.23,20.14,15.99,20.12c9.06-.01,16.4-7.34,16.4-16.4s-7.34-16.4-16.4-16.4h-.25v9.39c.25-.03.51-.04.76-.04,3.71,0,6.72,3.01,6.72,6.72s-3.01,6.72-6.72,6.72c-9.16-.78-8.84-13.36-9.49-20.12v-64.15h19.9v-20h30v-25.06c6.73-6.14,12.23-8.16,12.23-8.16l90,109.22c12.4-10.88,24.15-22,34.37-34.96l-105.86-99.78c-.56-1.25,2.33-.47,2.27-.89h24.99v-30h20v-19.72h63.94c6.77.65,19.34.33,20.12,9.49,0,3.71-3.01,6.72-6.72,6.72s-6.72-3.01-6.72-6.72c0-.25.01-.51.04-.76h-9.39v.25c0,9.06,7.34,16.4,16.4,16.4s16.39-7.34,16.4-16.4c.03-16.28-19.93-16.24-20.12-15.98h-73.94v-27.04h73.94c.19.26,20.14.3,20.12-15.98-.01-9.06-7.34-16.4-16.4-16.4s-16.4,7.34-16.4,16.4v.25h9.39c-.03-.25-.04-.51-.04-.76,0-3.71,3.01-6.72,6.72-6.72s6.72,3.01,6.72,6.72c-.78,9.16-13.36,8.84-20.12,9.49h-63.93v-20h-20v-30h-35.87s-9.67-7.86-8.75-7.69l119.04-97.97c-8.42-9.59-17.71-19.35-27.4-27.66l-103.62,118.32v.03h0Z"/>
    </g>
  </g>
</svg>